<?xml version="1.0" standalone="no"?>
<!DOCTYPE svg PUBLIC "-//W3C//DTD SVG 20010904//EN"
 "http://www.w3.org/TR/2001/REC-SVG-20010904/DTD/svg10.dtd">
<svg version="1.0" xmlns="http://www.w3.org/2000/svg"
 width="256.000000pt" height="256.000000pt" viewBox="0 0 256.000000 256.000000"
 preserveAspectRatio="xMidYMid meet">
<metadata>
Created by potrace 1.16, written by Peter Selinger 2001-2019
</metadata>
<g transform="translate(0.000000,256.000000) scale(0.100000,-0.100000)"
fill="#000000" stroke="none">
<path d="M1887 2380 c-35 -11 -176 -80 -182 -90 -3 -5 21 -6 52 -3 76 7 121
-21 142 -87 16 -50 25 -60 59 -60 13 0 36 -7 53 -15 30 -16 30 -16 44 19 9 21
15 67 15 111 0 71 -2 79 -29 106 -25 24 -37 29 -78 28 -26 0 -60 -4 -76 -9z"/>
<path d="M1443 2350 c-18 -4 -51 -24 -73 -44 -38 -34 -44 -36 -110 -36 -211 0
-469 -114 -624 -274 -187 -196 -290 -434 -303 -701 -11 -239 47 -445 183 -650
145 -220 361 -361 626 -409 63 -12 145 -15 338 -13 286 3 300 6 300 61 0 26 6
38 28 51 15 10 34 24 42 31 8 8 52 46 98 85 45 40 85 83 88 96 8 30 -1 53 -21
53 -9 0 -40 25 -70 55 -29 30 -59 55 -67 55 -7 0 -22 9 -31 21 -11 12 -25 18
-33 15 -9 -3 -21 -6 -28 -6 -6 0 -42 -27 -79 -60 -46 -41 -62 -60 -50 -60 11
0 37 19 58 41 42 44 90 70 112 62 24 -9 12 -27 -52 -83 -35 -30 -64 -59 -65
-63 0 -14 44 16 90 60 34 32 53 43 78 43 19 0 32 -5 32 -13 0 -17 -148 -147
-168 -147 -12 0 -13 -3 -5 -11 15 -15 41 2 119 72 53 48 86 60 100 38 7 -12
-43 -59 -122 -114 -41 -28 -66 -37 -133 -47 -60 -8 -78 -14 -66 -21 10 -5 41
-5 81 2 82 15 102 23 139 58 86 80 157 110 163 67 2 -14 -19 -42 -70 -92 -116
-113 -196 -164 -223 -142 -7 6 -53 16 -101 22 -57 8 -92 17 -98 26 -24 40 -84
95 -135 124 -31 17 -73 46 -94 65 -20 18 -44 33 -52 33 -8 0 -15 9 -15 20 0
32 67 47 142 31 69 -14 84 -10 36 10 -51 21 -156 18 -214 -7 -27 -12 -71 -29
-99 -37 l-50 -15 70 5 c61 4 76 2 115 -19 25 -14 45 -31 45 -38 0 -8 35 -31
77 -52 55 -28 92 -55 130 -97 l53 -58 75 -6 c97 -8 155 -28 155 -53 0 -33 -51
-49 -155 -47 -159 3 -256 19 -323 54 -43 22 -62 28 -70 20 -15 -15 -109 -13
-187 3 -184 40 -383 186 -488 360 -46 74 -101 204 -124 290 -29 107 -36 346
-13 466 44 243 161 449 342 606 145 125 348 212 505 217 l67 2 5 -272 c4 -220
2 -274 -9 -283 -9 -7 -80 -9 -240 -6 -283 7 -313 -2 -357 -104 -31 -71 -11
-157 47 -200 51 -38 64 -40 311 -40 l244 0 6 -25 c6 -25 7 -25 27 -8 39 35
187 212 230 275 69 101 69 104 64 315 -2 103 -7 197 -10 208 -19 68 -33 137
-36 178 -1 12 -10 17 -30 17 -18 0 -35 8 -43 19 -17 24 -45 31 -85 21z m178
-588 c9 -32 8 -44 -8 -78 -10 -21 -25 -39 -33 -39 -8 0 -14 -8 -12 -16 1 -9
-9 -28 -23 -43 -14 -15 -25 -31 -25 -37 0 -13 -18 -11 -23 4 -2 6 -3 -1 -1
-17 3 -21 0 -27 -11 -23 -8 4 -12 1 -9 -7 3 -7 -4 -20 -15 -30 -18 -17 -20
-16 -35 6 -9 12 -16 18 -16 12 0 -5 5 -15 12 -22 14 -14 -8 -62 -29 -62 -7 0
-13 -7 -13 -15 0 -8 -7 -15 -16 -15 -10 0 -14 6 -11 14 3 8 3 17 -1 19 -4 2
-1 2 6 1 7 -2 15 3 18 11 4 8 13 15 21 15 11 0 13 7 8 29 -5 23 -2 32 17 45
17 12 23 26 23 54 0 35 1 37 33 36 27 -2 32 1 32 21 0 13 7 25 15 29 8 3 15
12 15 21 0 8 9 24 20 35 12 12 20 33 20 55 0 48 26 46 41 -3z"/>
<path d="M1887 2070 c-33 -26 -42 -69 -23 -113 33 -81 141 -76 162 8 8 31 -21
102 -47 116 -28 15 -64 11 -92 -11z"/>
<path d="M1814 1823 c-40 -80 -162 -260 -226 -335 -181 -211 -371 -345 -505
-356 -77 -6 -106 10 -135 75 -18 42 -21 44 -31 27 -6 -10 -13 -60 -15 -111 -4
-92 -4 -92 26 -123 23 -23 39 -30 69 -30 71 0 105 14 256 103 81 48 187 140
311 268 75 77 136 145 136 150 0 5 7 9 15 9 20 0 13 -13 -57 -107 -56 -76
-186 -213 -283 -300 l-58 -52 5 -120 c5 -108 8 -125 31 -159 33 -51 86 -76
144 -68 60 8 76 18 112 72 25 38 31 59 32 103 1 31 5 150 8 266 l6 210 230 5
c198 4 230 7 227 20 -2 8 -8 17 -13 18 -13 5 -11 39 2 48 6 3 9 19 5 34 -4 22
-1 29 16 33 19 5 20 11 15 54 -3 27 -1 56 4 64 5 7 9 10 9 4 0 -5 4 -4 9 4 5
7 14 10 20 6 9 -5 7 -11 -6 -21 -16 -12 -16 -13 -1 -14 9 0 19 -6 21 -12 3 -8
6 -5 6 6 1 14 6 17 26 12 26 -7 26 -7 10 24 -20 38 -63 60 -117 59 l-43 -1 32
-9 c60 -17 41 -24 -73 -26 -87 -1 -127 -6 -169 -22 -54 -20 -69 -16 -40 12 8
8 12 17 9 19 -2 3 2 11 11 18 8 7 15 25 15 41 0 15 5 31 10 34 6 3 19 24 29
45 l19 39 -35 21 c-19 11 -36 20 -37 20 -2 0 -17 -26 -32 -57z"/>
<path d="M550 1614 c-117 -265 -101 -552 44 -810 45 -81 124 -180 134 -169 3
3 -6 18 -19 33 -74 81 -144 219 -180 351 -45 167 -34 418 25 576 29 75 27 87
-4 19z"/>
</g>
</svg>
